<svg xmlns="http://www.w3.org/2000/svg" viewBox="0 0 200 200" width="200" height="200">
  <circle cx="100" cy="100" r="92" fill="none" stroke="#0F6E56" stroke-width="2"/>
  <circle cx="100" cy="100" r="86" fill="none" stroke="#0F6E56" stroke-width="0.8"/>
  <path d="M 35 130 Q 100 60 165 130" stroke="#0F6E56" stroke-width="2" fill="none"/>
  <line x1="35" y1="130" x2="35" y2="155" stroke="#0F6E56" stroke-width="2"/>
  <line x1="165" y1="130" x2="165" y2="155" stroke="#0F6E56" stroke-width="2"/>
  <line x1="35" y1="140" x2="165" y2="140" stroke="#0F6E56" stroke-width="1.5"/>
  <line x1="50" y1="140" x2="50" y2="130" stroke="#0F6E56" stroke-width="0.8"/>
  <line x1="70" y1="140" x2="70" y2="115" stroke="#0F6E56" stroke-width="0.8"/>
  <line x1="85" y1="140" x2="85" y2="90" stroke="#0F6E56" stroke-width="0.8"/>
  <line x1="100" y1="140" x2="100" y2="75" stroke="#0F6E56" stroke-width="0.8"/>
  <line x1="115" y1="140" x2="115" y2="90" stroke="#0F6E56" stroke-width="0.8"/>
  <line x1="130" y1="140" x2="130" y2="115" stroke="#0F6E56" stroke-width="0.8"/>
  <line x1="150" y1="140" x2="150" y2="130" stroke="#0F6E56" stroke-width="0.8"/>
  <path d="M 40 155 Q 50 152 60 155 T 80 155 T 100 155 T 120 155 T 140 155 T 160 155" stroke="#0F6E56" stroke-width="1" fill="none"/>
  <defs>
    <path id="porto-top" d="M 30 100 A 70 70 0 0 1 170 100" fill="none"/>
    <path id="porto-bot" d="M 30 105 A 72 72 0 0 0 170 105" fill="none"/>
  </defs>
  <text font-family="sans-serif" font-size="13" font-weight="500" fill="#0F6E56" letter-spacing="2">
    <textPath href="#porto-top" startOffset="50%" text-anchor="middle">PORTO</textPath>
  </text>
  <text font-family="sans-serif" font-size="8" fill="#0F6E56" letter-spacing="1.5">
    <textPath href="#porto-bot" startOffset="50%" text-anchor="middle">CAMINHO PORTUGUÊS</textPath>
  </text>
</svg>