<svg xmlns="http://www.w3.org/2000/svg" viewBox="0 0 200 200" width="200" height="200">
  <circle cx="100" cy="100" r="92" fill="none" stroke="#0F6E56" stroke-width="2"/>
  <circle cx="100" cy="100" r="86" fill="none" stroke="#0F6E56" stroke-width="0.8"/>
  <path d="M 40 120 Q 52 105 64 120" fill="none" stroke="#0F6E56" stroke-width="1.5"/>
  <path d="M 64 120 Q 76 102 88 120" fill="none" stroke="#0F6E56" stroke-width="1.5"/>
  <path d="M 88 120 Q 100 100 112 120" fill="none" stroke="#0F6E56" stroke-width="1.5"/>
  <path d="M 112 120 Q 124 102 136 120" fill="none" stroke="#0F6E56" stroke-width="1.5"/>
  <path d="M 136 120 Q 148 105 160 120" fill="none" stroke="#0F6E56" stroke-width="1.5"/>
  <line x1="38" y1="96" x2="162" y2="96" stroke="#0F6E56" stroke-width="1.8"/>
  <line x1="38" y1="92" x2="162" y2="92" stroke="#0F6E56" stroke-width="1.5"/>
  <line x1="40" y1="120" x2="40" y2="140" stroke="#0F6E56" stroke-width="1.5"/>
  <line x1="64" y1="120" x2="64" y2="140" stroke="#0F6E56" stroke-width="1.2"/>
  <line x1="88" y1="120" x2="88" y2="140" stroke="#0F6E56" stroke-width="1.2"/>
  <line x1="112" y1="120" x2="112" y2="140" stroke="#0F6E56" stroke-width="1.2"/>
  <line x1="136" y1="120" x2="136" y2="140" stroke="#0F6E56" stroke-width="1.2"/>
  <line x1="160" y1="120" x2="160" y2="140" stroke="#0F6E56" stroke-width="1.5"/>
  <rect x="90" y="70" width="20" height="26" fill="none" stroke="#0F6E56" stroke-width="1.5"/>
  <path d="M 88 70 L 112 70 L 110 65 L 90 65 Z" fill="none" stroke="#0F6E56" stroke-width="1.5"/>
  <line x1="100" y1="65" x2="100" y2="58" stroke="#0F6E56" stroke-width="1.2"/>
  <circle cx="100" cy="58" r="2" fill="#0F6E56"/>
  <path d="M 40 150 Q 55 147 70 150 T 100 150 T 130 150 T 160 150" stroke="#0F6E56" stroke-width="0.8" fill="none"/>
  <defs>
    <path id="pdl-top" d="M 30 100 A 70 70 0 0 1 170 100" fill="none"/>
    <path id="pdl-bot" d="M 30 105 A 72 72 0 0 0 170 105" fill="none"/>
  </defs>
  <text font-family="sans-serif" font-size="10" font-weight="500" fill="#0F6E56" letter-spacing="1.5">
    <textPath href="#pdl-top" startOffset="50%" text-anchor="middle">PONTE DE LIMA</textPath>
  </text>
  <text font-family="sans-serif" font-size="7" fill="#0F6E56" letter-spacing="1.5">
    <textPath href="#pdl-bot" startOffset="50%" text-anchor="middle">PONTE MEDIEVAL</textPath>
  </text>
</svg>