<svg xmlns="http://www.w3.org/2000/svg" viewBox="0 0 200 200" width="200" height="200">
  <circle cx="100" cy="100" r="92" fill="none" stroke="#0F6E56" stroke-width="2"/>
  <circle cx="100" cy="100" r="86" fill="none" stroke="#0F6E56" stroke-width="0.8"/>
  <rect x="75" y="145" width="50" height="6" fill="none" stroke="#0F6E56" stroke-width="1.5"/>
  <rect x="80" y="139" width="40" height="6" fill="none" stroke="#0F6E56" stroke-width="1.5"/>
  <rect x="85" y="133" width="30" height="6" fill="none" stroke="#0F6E56" stroke-width="1.5"/>
  <rect x="95" y="95" width="10" height="38" fill="none" stroke="#0F6E56" stroke-width="1.5"/>
  <rect x="92" y="90" width="16" height="5" fill="none" stroke="#0F6E56" stroke-width="1.5"/>
  <line x1="100" y1="55" x2="100" y2="90" stroke="#0F6E56" stroke-width="2.5"/>
  <line x1="82" y1="70" x2="118" y2="70" stroke="#0F6E56" stroke-width="2.5"/>
  <circle cx="100" cy="55" r="3" fill="#0F6E56"/>
  <circle cx="82" cy="70" r="2.5" fill="#0F6E56"/>
  <circle cx="118" cy="70" r="2.5" fill="#0F6E56"/>
  <circle cx="100" cy="90" r="2.5" fill="#0F6E56"/>
  <path d="M 50 130 L 50 110 M 45 115 L 50 105 L 55 115 M 48 120 L 50 112 L 52 120" stroke="#0F6E56" stroke-width="1.2" fill="none"/>
  <path d="M 150 130 L 150 110 M 145 115 L 150 105 L 155 115 M 148 120 L 150 112 L 152 120" stroke="#0F6E56" stroke-width="1.2" fill="none"/>
  <defs>
    <path id="rub-top" d="M 30 100 A 70 70 0 0 1 170 100" fill="none"/>
    <path id="rub-bot" d="M 30 105 A 72 72 0 0 0 170 105" fill="none"/>
  </defs>
  <text font-family="sans-serif" font-size="12" font-weight="500" fill="#0F6E56" letter-spacing="2">
    <textPath href="#rub-top" startOffset="50%" text-anchor="middle">RUBIÃES</textPath>
  </text>
  <text font-family="sans-serif" font-size="7" fill="#0F6E56" letter-spacing="1.5">
    <textPath href="#rub-bot" startOffset="50%" text-anchor="middle">ALTO DA PORTELA</textPath>
  </text>
</svg>