<svg xmlns="http://www.w3.org/2000/svg" viewBox="0 0 200 200" width="200" height="200">
  <circle cx="100" cy="100" r="92" fill="none" stroke="#0F6E56" stroke-width="2"/>
  <circle cx="100" cy="100" r="86" fill="none" stroke="#0F6E56" stroke-width="0.8"/>
  <rect x="55" y="110" width="90" height="35" fill="none" stroke="#0F6E56" stroke-width="1.5"/>
  <path d="M 92 145 L 92 125 Q 100 118 108 125 L 108 145" fill="none" stroke="#0F6E56" stroke-width="1.5"/>
  <rect x="55" y="75" width="22" height="35" fill="none" stroke="#0F6E56" stroke-width="1.5"/>
  <rect x="52" y="72" width="28" height="5" fill="none" stroke="#0F6E56" stroke-width="1.5"/>
  <path d="M 55 72 L 55 68 L 58 68 L 58 72 M 61 72 L 61 68 L 64 68 L 64 72 M 67 72 L 67 68 L 70 68 L 70 72 M 73 72 L 73 68 L 76 68 L 76 72" stroke="#0F6E56" stroke-width="1.3" fill="none"/>
  <rect x="123" y="75" width="22" height="35" fill="none" stroke="#0F6E56" stroke-width="1.5"/>
  <rect x="120" y="72" width="28" height="5" fill="none" stroke="#0F6E56" stroke-width="1.5"/>
  <path d="M 123 72 L 123 68 L 126 68 L 126 72 M 129 72 L 129 68 L 132 68 L 132 72 M 135 72 L 135 68 L 138 68 L 138 72 M 141 72 L 141 68 L 144 68 L 144 72" stroke="#0F6E56" stroke-width="1.3" fill="none"/>
  <circle cx="100" cy="95" r="7" fill="none" stroke="#0F6E56" stroke-width="1.3"/>
  <line x1="93" y1="95" x2="107" y2="95" stroke="#0F6E56" stroke-width="0.8"/>
  <line x1="100" y1="88" x2="100" y2="102" stroke="#0F6E56" stroke-width="0.8"/>
  <rect x="63" y="85" width="6" height="8" fill="none" stroke="#0F6E56" stroke-width="1"/>
  <rect x="131" y="85" width="6" height="8" fill="none" stroke="#0F6E56" stroke-width="1"/>
  <defs>
    <path id="tui-top" d="M 30 100 A 70 70 0 0 1 170 100" fill="none"/>
    <path id="tui-bot" d="M 30 105 A 72 72 0 0 0 170 105" fill="none"/>
  </defs>
  <text font-family="sans-serif" font-size="13" font-weight="500" fill="#0F6E56" letter-spacing="3">
    <textPath href="#tui-top" startOffset="50%" text-anchor="middle">TUI</textPath>
  </text>
  <text font-family="sans-serif" font-size="7" fill="#0F6E56" letter-spacing="1.5">
    <textPath href="#tui-bot" startOffset="50%" text-anchor="middle">GALICIA · CATEDRAL</textPath>
  </text>
</svg>