<svg xmlns="http://www.w3.org/2000/svg" viewBox="0 0 200 200" width="200" height="200">
  <circle cx="100" cy="100" r="92" fill="none" stroke="#0F6E56" stroke-width="2"/>
  <circle cx="100" cy="100" r="86" fill="none" stroke="#0F6E56" stroke-width="0.8"/>
  <rect x="60" y="115" width="30" height="25" fill="none" stroke="#0F6E56" stroke-width="1.5" rx="2"/>
  <rect x="92" y="115" width="28" height="25" fill="none" stroke="#0F6E56" stroke-width="1.5" rx="2"/>
  <rect x="122" y="115" width="22" height="25" fill="none" stroke="#0F6E56" stroke-width="1.5" rx="2"/>
  <rect x="70" y="88" width="28" height="25" fill="none" stroke="#0F6E56" stroke-width="1.5" rx="2"/>
  <rect x="100" y="88" width="30" height="25" fill="none" stroke="#0F6E56" stroke-width="1.5" rx="2"/>
  <rect x="82" y="63" width="32" height="23" fill="none" stroke="#0F6E56" stroke-width="1.5" rx="2"/>
  <circle cx="70" cy="125" r="0.8" fill="#0F6E56"/>
  <circle cx="78" cy="130" r="0.8" fill="#0F6E56"/>
  <circle cx="82" cy="122" r="0.8" fill="#0F6E56"/>
  <circle cx="102" cy="128" r="0.8" fill="#0F6E56"/>
  <circle cx="110" cy="122" r="0.8" fill="#0F6E56"/>
  <circle cx="130" cy="125" r="0.8" fill="#0F6E56"/>
  <circle cx="80" cy="100" r="0.8" fill="#0F6E56"/>
  <circle cx="88" cy="105" r="0.8" fill="#0F6E56"/>
  <circle cx="110" cy="98" r="0.8" fill="#0F6E56"/>
  <circle cx="120" cy="104" r="0.8" fill="#0F6E56"/>
  <circle cx="92" cy="72" r="0.8" fill="#0F6E56"/>
  <circle cx="100" cy="78" r="0.8" fill="#0F6E56"/>
  <line x1="85" y1="147" x2="95" y2="150" stroke="#0F6E56" stroke-width="0.8"/>
  <line x1="105" y1="147" x2="115" y2="150" stroke="#0F6E56" stroke-width="0.8"/>
  <defs>
    <path id="por-top" d="M 30 100 A 70 70 0 0 1 170 100" fill="none"/>
    <path id="por-bot" d="M 30 105 A 72 72 0 0 0 170 105" fill="none"/>
  </defs>
  <text font-family="sans-serif" font-size="11" font-weight="500" fill="#0F6E56" letter-spacing="1.8">
    <textPath href="#por-top" startOffset="50%" text-anchor="middle">O PORRIÑO</textPath>
  </text>
  <text font-family="sans-serif" font-size="7" fill="#0F6E56" letter-spacing="1.5">
    <textPath href="#por-bot" startOffset="50%" text-anchor="middle">GRANITO ROSA</textPath>
  </text>
</svg>