<svg xmlns="http://www.w3.org/2000/svg" viewBox="0 0 200 200" width="200" height="200">
  <circle cx="100" cy="100" r="92" fill="none" stroke="#0F6E56" stroke-width="2"/>
  <circle cx="100" cy="100" r="86" fill="none" stroke="#0F6E56" stroke-width="0.8"/>
  <line x1="35" y1="85" x2="165" y2="85" stroke="#0F6E56" stroke-width="2"/>
  <line x1="35" y1="82" x2="165" y2="82" stroke="#0F6E56" stroke-width="1"/>
  <line x1="55" y1="85" x2="55" y2="150" stroke="#0F6E56" stroke-width="1.8"/>
  <line x1="70" y1="85" x2="70" y2="150" stroke="#0F6E56" stroke-width="1.8"/>
  <line x1="130" y1="85" x2="130" y2="150" stroke="#0F6E56" stroke-width="1.8"/>
  <line x1="145" y1="85" x2="145" y2="150" stroke="#0F6E56" stroke-width="1.8"/>
  <line x1="55" y1="95" x2="70" y2="105" stroke="#0F6E56" stroke-width="0.8"/>
  <line x1="70" y1="95" x2="55" y2="105" stroke="#0F6E56" stroke-width="0.8"/>
  <line x1="55" y1="115" x2="70" y2="125" stroke="#0F6E56" stroke-width="0.8"/>
  <line x1="70" y1="115" x2="55" y2="125" stroke="#0F6E56" stroke-width="0.8"/>
  <line x1="55" y1="135" x2="70" y2="145" stroke="#0F6E56" stroke-width="0.8"/>
  <line x1="70" y1="135" x2="55" y2="145" stroke="#0F6E56" stroke-width="0.8"/>
  <line x1="130" y1="95" x2="145" y2="105" stroke="#0F6E56" stroke-width="0.8"/>
  <line x1="145" y1="95" x2="130" y2="105" stroke="#0F6E56" stroke-width="0.8"/>
  <line x1="130" y1="115" x2="145" y2="125" stroke="#0F6E56" stroke-width="0.8"/>
  <line x1="145" y1="115" x2="130" y2="125" stroke="#0F6E56" stroke-width="0.8"/>
  <line x1="130" y1="135" x2="145" y2="145" stroke="#0F6E56" stroke-width="0.8"/>
  <line x1="145" y1="135" x2="130" y2="145" stroke="#0F6E56" stroke-width="0.8"/>
  <path d="M 70 85 Q 100 110 130 85" fill="none" stroke="#0F6E56" stroke-width="1.5"/>
  <line x1="100" y1="85" x2="100" y2="105" stroke="#0F6E56" stroke-width="1"/>
  <line x1="30" y1="150" x2="170" y2="150" stroke="#0F6E56" stroke-width="0.8"/>
  <rect x="80" y="76" width="20" height="6" fill="none" stroke="#0F6E56" stroke-width="1"/>
  <rect x="100" y="76" width="18" height="6" fill="none" stroke="#0F6E56" stroke-width="1"/>
  <defs>
    <path id="red-top" d="M 30 100 A 70 70 0 0 1 170 100" fill="none"/>
    <path id="red-bot" d="M 30 105 A 72 72 0 0 0 170 105" fill="none"/>
  </defs>
  <text font-family="sans-serif" font-size="11" font-weight="500" fill="#0F6E56" letter-spacing="1.5">
    <textPath href="#red-top" startOffset="50%" text-anchor="middle">REDONDELA</textPath>
  </text>
  <text font-family="sans-serif" font-size="7" fill="#0F6E56" letter-spacing="1.5">
    <textPath href="#red-bot" startOffset="50%" text-anchor="middle">OS VIADUTOS</textPath>
  </text>
</svg>