<svg xmlns="http://www.w3.org/2000/svg" viewBox="0 0 200 200" width="200" height="200">
  <circle cx="100" cy="100" r="92" fill="none" stroke="#0F6E56" stroke-width="2"/>
  <circle cx="100" cy="100" r="86" fill="none" stroke="#0F6E56" stroke-width="0.8"/>
  <path d="M 60 65 Q 58 58 62 55 Q 66 58 63 63 M 75 62 Q 73 55 77 52 Q 81 55 78 60 M 100 58 Q 98 50 103 48 Q 107 51 103 56 M 125 62 Q 122 55 127 52 Q 131 55 128 60 M 140 65 Q 138 58 142 55 Q 146 58 143 63" stroke="#0F6E56" stroke-width="1" fill="none" stroke-linecap="round"/>
  <path d="M 45 130 Q 60 110 75 130" fill="none" stroke="#0F6E56" stroke-width="1.8"/>
  <path d="M 75 130 Q 100 105 125 130" fill="none" stroke="#0F6E56" stroke-width="1.8"/>
  <path d="M 125 130 Q 140 110 155 130" fill="none" stroke="#0F6E56" stroke-width="1.8"/>
  <line x1="40" y1="100" x2="160" y2="100" stroke="#0F6E56" stroke-width="2"/>
  <line x1="40" y1="97" x2="160" y2="97" stroke="#0F6E56" stroke-width="1"/>
  <line x1="45" y1="130" x2="45" y2="145" stroke="#0F6E56" stroke-width="1.5"/>
  <line x1="75" y1="130" x2="75" y2="145" stroke="#0F6E56" stroke-width="1.2"/>
  <line x1="125" y1="130" x2="125" y2="145" stroke="#0F6E56" stroke-width="1.2"/>
  <line x1="155" y1="130" x2="155" y2="145" stroke="#0F6E56" stroke-width="1.5"/>
  <path d="M 45 145 Q 55 142 65 145 T 85 145 T 105 145 T 125 145 T 145 145 T 160 145" stroke="#0F6E56" stroke-width="1" fill="none"/>
  <path d="M 50 152 Q 60 149 70 152 T 90 152 T 110 152 T 130 152 T 150 152" stroke="#0F6E56" stroke-width="0.8" fill="none"/>
  <defs>
    <path id="cal-top" d="M 30 100 A 70 70 0 0 1 170 100" fill="none"/>
    <path id="cal-bot" d="M 30 105 A 72 72 0 0 0 170 105" fill="none"/>
  </defs>
  <text font-family="sans-serif" font-size="10" font-weight="500" fill="#0F6E56" letter-spacing="1.5">
    <textPath href="#cal-top" startOffset="50%" text-anchor="middle">CALDAS DE REIS</textPath>
  </text>
  <text font-family="sans-serif" font-size="7" fill="#0F6E56" letter-spacing="1.5">
    <textPath href="#cal-bot" startOffset="50%" text-anchor="middle">AGUAS TERMAIS</textPath>
  </text>
</svg>