<svg xmlns="http://www.w3.org/2000/svg" viewBox="0 0 200 200" width="200" height="200">
  <circle cx="100" cy="100" r="92" fill="none" stroke="#0F6E56" stroke-width="2"/>
  <circle cx="100" cy="100" r="86" fill="none" stroke="#0F6E56" stroke-width="0.8"/>
  <path d="M 45 120 Q 50 145 100 148 Q 150 145 155 120 Z" fill="none" stroke="#0F6E56" stroke-width="2"/>
  <path d="M 52 128 Q 100 138 148 128" stroke="#0F6E56" stroke-width="0.8" fill="none"/>
  <path d="M 58 138 Q 100 145 142 138" stroke="#0F6E56" stroke-width="0.8" fill="none"/>
  <line x1="100" y1="120" x2="100" y2="65" stroke="#0F6E56" stroke-width="2"/>
  <path d="M 100 72 L 130 85 L 130 110 L 100 120 Z" fill="none" stroke="#0F6E56" stroke-width="1.5"/>
  <path d="M 100 72 L 70 85 L 70 110 L 100 120 Z" fill="none" stroke="#0F6E56" stroke-width="1.5"/>
  <line x1="100" y1="65" x2="100" y2="55" stroke="#0F6E56" stroke-width="1.5"/>
  <line x1="95" y1="58" x2="105" y2="58" stroke="#0F6E56" stroke-width="1.5"/>
  <path d="M 55 155 Q 58 158 60 162 Q 56 163 53 160 Q 53 156 55 155 Z" fill="#0F6E56"/>
  <path d="M 53 156 Q 53 153 55 153" stroke="#0F6E56" stroke-width="0.8" fill="none"/>
  <path d="M 145 155 Q 148 158 150 162 Q 146 163 143 160 Q 143 156 145 155 Z" fill="#0F6E56"/>
  <path d="M 143 156 Q 143 153 145 153" stroke="#0F6E56" stroke-width="0.8" fill="none"/>
  <path d="M 40 155 Q 50 152 60 155 M 140 155 Q 150 152 160 155" stroke="#0F6E56" stroke-width="0.8" fill="none"/>
  <defs>
    <path id="pad-top" d="M 30 100 A 70 70 0 0 1 170 100" fill="none"/>
    <path id="pad-bot" d="M 30 105 A 72 72 0 0 0 170 105" fill="none"/>
  </defs>
  <text font-family="sans-serif" font-size="12" font-weight="500" fill="#0F6E56" letter-spacing="2">
    <textPath href="#pad-top" startOffset="50%" text-anchor="middle">PADRÓN</textPath>
  </text>
  <text font-family="sans-serif" font-size="7" fill="#0F6E56" letter-spacing="1.5">
    <textPath href="#pad-bot" startOffset="50%" text-anchor="middle">A BARCA DE PEDRA</textPath>
  </text>
</svg>