<svg xmlns="http://www.w3.org/2000/svg" viewBox="0 0 200 200" width="200" height="200">
  <circle cx="100" cy="100" r="92" fill="none" stroke="#0F6E56" stroke-width="2.5"/>
  <circle cx="100" cy="100" r="86" fill="none" stroke="#0F6E56" stroke-width="1"/>
  <circle cx="100" cy="100" r="80" fill="none" stroke="#0F6E56" stroke-width="0.8"/>
  <path d="M 100 60 Q 55 70 52 135 Q 60 148 100 150 Q 140 148 148 135 Q 145 70 100 60 Z" fill="none" stroke="#0F6E56" stroke-width="2"/>
  <path d="M 100 60 L 78 148 M 100 60 L 122 148 M 100 60 L 65 145 M 100 60 L 135 145 M 100 60 L 56 138 M 100 60 L 144 138 M 100 60 L 100 150 M 100 60 L 88 149 M 100 60 L 112 149" stroke="#0F6E56" stroke-width="0.8" fill="none"/>
  <circle cx="100" cy="60" r="3" fill="#0F6E56"/>
  <g transform="translate(100 105)">
    <path d="M 0 -30 L 4 -28 L 4 20 L 10 25 L 0 35 L -10 25 L -4 20 L -4 -28 Z" fill="#A32D2D" stroke="#A32D2D" stroke-width="0.8"/>
    <path d="M -25 -5 L -20 -8 L -4 -8 L -4 -2 L -20 -2 L -25 -5 Z M 25 -5 L 20 -8 L 4 -8 L 4 -2 L 20 -2 L 25 -5 Z" fill="#A32D2D" stroke="#A32D2D" stroke-width="0.8"/>
    <path d="M 0 -35 L 4 -30 L -4 -30 Z" fill="#A32D2D"/>
  </g>
  <defs>
    <path id="san-top" d="M 25 100 A 75 75 0 0 1 175 100" fill="none"/>
    <path id="san-bot" d="M 25 105 A 77 77 0 0 0 175 105" fill="none"/>
  </defs>
  <text font-family="sans-serif" font-size="11" font-weight="500" fill="#0F6E56" letter-spacing="2">
    <textPath href="#san-top" startOffset="50%" text-anchor="middle">SANTIAGO DE COMPOSTELA</textPath>
  </text>
  <text font-family="sans-serif" font-size="7" fill="#0F6E56" letter-spacing="1.5">
    <textPath href="#san-bot" startOffset="50%" text-anchor="middle">FINIS · CHEGASTE</textPath>
  </text>
</svg>